<mxfile host="Electron" modified="2024-01-24T11:35:00.238Z" agent="Mozilla/5.0 (Macintosh; Intel Mac OS X 10_15_7) AppleWebKit/537.36 (KHTML, like Gecko) draw.io/22.0.3 Chrome/114.0.5735.289 Electron/25.8.4 Safari/537.36" etag="AKPOZNg1QVWmBJdMH845" version="22.0.3" type="device">
  <diagram name="Page-1" id="c4acf3e9-155e-7222-9cf6-157b1a14988f">
    <mxGraphModel dx="3209" dy="1934" grid="1" gridSize="10" guides="1" tooltips="1" connect="1" arrows="1" fold="1" page="1" pageScale="1" pageWidth="850" pageHeight="1100" background="none" math="0" shadow="0">
      <root>
        <mxCell id="0" />
        <mxCell id="1" parent="0" />
        <mxCell id="jP7N-M61z1NQIUzTlqMH-1" value="&lt;p style=&quot;margin:0px;margin-top:4px;text-align:center;&quot;&gt;&lt;i&gt;&amp;lt;Iface&amp;gt;&amp;nbsp;&lt;/i&gt;IСharacterLocatable&lt;/p&gt;&lt;hr size=&quot;1&quot;&gt;&lt;p style=&quot;margin:0px;margin-left:4px;&quot;&gt;&lt;span style=&quot;background-color: initial;&quot;&gt;+ leaveCharacter(CharacterImpl): void&amp;nbsp;&lt;/span&gt;&lt;br&gt;&lt;/p&gt;&lt;p style=&quot;margin:0px;margin-left:4px;&quot;&gt;&lt;span style=&quot;background-color: initial;&quot;&gt;+ joinCharacter(CharacterImpl): void&lt;/span&gt;&lt;/p&gt;&lt;p style=&quot;margin:0px;margin-left:4px;&quot;&gt;+ isCharacterInLocation(Character): boolean&lt;/p&gt;&lt;p style=&quot;margin:0px;margin-left:4px;&quot;&gt;+&amp;nbsp;getAllVisitors():&amp;nbsp;ArrayList&lt;span style=&quot;background-color: rgb(31, 31, 31);&quot;&gt;&amp;lt;&lt;/span&gt;Character&lt;span style=&quot;background-color: rgb(31, 31, 31);&quot;&gt;&amp;gt;&lt;/span&gt;&lt;/p&gt;" style="verticalAlign=top;align=left;overflow=fill;fontSize=12;fontFamily=Helvetica;html=1;rounded=0;shadow=0;comic=0;labelBackgroundColor=none;strokeWidth=1" parent="1" vertex="1">
          <mxGeometry x="-500" y="610" width="310" height="100" as="geometry" />
        </mxCell>
        <mxCell id="iI-DbH2HvINR79B3HrHe-48" value="&lt;p style=&quot;margin:0px;margin-top:4px;text-align:center;&quot;&gt;&lt;i&gt;&amp;lt;AnstractClass&lt;/i&gt;&lt;i style=&quot;background-color: initial;&quot;&gt;&amp;gt; Entity&lt;/i&gt;&lt;/p&gt;&lt;p style=&quot;margin:0px;margin-left:4px;&quot;&gt;&lt;br&gt;&lt;/p&gt;&lt;p style=&quot;margin:0px;margin-left:4px;&quot;&gt;+ equals(): Boolean&lt;br&gt;&lt;/p&gt;&lt;p style=&quot;margin:0px;margin-left:4px;&quot;&gt;+ hashCode(): Hash&lt;/p&gt;&lt;p style=&quot;margin:0px;margin-left:4px;&quot;&gt;+ toString(): String&lt;/p&gt;" style="verticalAlign=top;align=left;overflow=fill;fontSize=12;fontFamily=Helvetica;html=1;rounded=0;shadow=0;comic=0;labelBackgroundColor=none;strokeWidth=1" parent="1" vertex="1">
          <mxGeometry x="-1360" y="-90" width="310" height="190" as="geometry" />
        </mxCell>
        <mxCell id="kIKf0sKQTjYQmLlP3sBs-7" value="&lt;p style=&quot;margin:0px;margin-top:4px;text-align:center;&quot;&gt;&lt;i&gt;&amp;lt;enum&lt;/i&gt;&lt;i style=&quot;background-color: initial;&quot;&gt;&amp;gt; Time&lt;/i&gt;&lt;/p&gt;&lt;hr size=&quot;1&quot;&gt;&lt;p style=&quot;margin:0px;margin-left:4px;&quot;&gt;MORNING&lt;/p&gt;&lt;p style=&quot;margin:0px;margin-left:4px;&quot;&gt;NOON&lt;/p&gt;&lt;p style=&quot;margin:0px;margin-left:4px;&quot;&gt;EVENING&lt;/p&gt;&lt;p style=&quot;margin:0px;margin-left:4px;&quot;&gt;DAYEND&lt;/p&gt;&lt;p style=&quot;margin:0px;margin-left:4px;&quot;&gt;NIGHT&lt;/p&gt;&lt;p style=&quot;margin:0px;margin-left:4px;&quot;&gt;MIDNIGHT&lt;/p&gt;&lt;hr size=&quot;1&quot;&gt;&lt;p style=&quot;margin:0px;margin-left:4px;&quot;&gt;&lt;span style=&quot;background-color: initial;&quot;&gt;+ getValue(): int&lt;/span&gt;&lt;/p&gt;" style="verticalAlign=top;align=left;overflow=fill;fontSize=12;fontFamily=Helvetica;html=1;rounded=0;shadow=0;comic=0;labelBackgroundColor=none;strokeWidth=1" parent="1" vertex="1">
          <mxGeometry x="20" y="610" width="220" height="160" as="geometry" />
        </mxCell>
        <mxCell id="WZBPJUbF7nQeQ7k4uoAX-9" style="edgeStyle=orthogonalEdgeStyle;rounded=0;orthogonalLoop=1;jettySize=auto;html=1;exitX=0.5;exitY=0;exitDx=0;exitDy=0;strokeWidth=4;endArrow=open;endFill=0;" edge="1" parent="1" source="dvBEQIHfGSBWnm2R5klS-8" target="8IdPx9-K8sB281tfVT_--5">
          <mxGeometry relative="1" as="geometry" />
        </mxCell>
        <mxCell id="dvBEQIHfGSBWnm2R5klS-8" value="&lt;p style=&quot;margin:0px;margin-top:4px;text-align:center;&quot;&gt;&lt;i&gt;&amp;lt;Class&amp;gt; Location&lt;/i&gt;&lt;/p&gt;&lt;hr size=&quot;1&quot;&gt;&lt;p style=&quot;margin:0px;margin-left:4px;&quot;&gt;+ name: String&lt;/p&gt;&lt;p style=&quot;margin:0px;margin-left:4px;&quot;&gt;+vsibility : double&lt;/p&gt;&lt;p style=&quot;margin:0px;margin-left:4px;&quot;&gt;+visibility_bias : double&lt;/p&gt;&lt;p style=&quot;margin:0px;margin-left:4px;&quot;&gt;+currentTime : CurrentTimeContainer&lt;/p&gt;&lt;p style=&quot;margin:0px;margin-left:4px;&quot;&gt;+rayTrayingLocation : Location&lt;/p&gt;&lt;p style=&quot;margin:0px;margin-left:4px;&quot;&gt;+rayTraycingBias: double&lt;/p&gt;&lt;p style=&quot;margin:0px;margin-left:4px;&quot;&gt;&lt;br&gt;&lt;/p&gt;&lt;hr size=&quot;1&quot;&gt;&lt;p style=&quot;margin:0px;margin-left:4px;&quot;&gt;&lt;br&gt;&lt;/p&gt;&lt;p style=&quot;margin: 0px 0px 0px 4px;&quot;&gt;+ getName(): String&lt;/p&gt;&lt;p style=&quot;margin: 0px 0px 0px 4px;&quot;&gt;+ setRayTracingBias(double ) : void&lt;/p&gt;&lt;p style=&quot;margin: 0px 0px 0px 4px;&quot;&gt;+ getVisibility() : double&lt;/p&gt;&lt;p style=&quot;margin: 0px 0px 0px 4px;&quot;&gt;+ setBias(double) : void&lt;/p&gt;&lt;p style=&quot;margin: 0px 0px 0px 4px;&quot;&gt;+ setVisibility(double): void&lt;/p&gt;&lt;p style=&quot;margin: 0px 0px 0px 4px;&quot;&gt;+ setRayTraycing(Location) : void&lt;/p&gt;&lt;p style=&quot;margin: 0px 0px 0px 4px;&quot;&gt;+ timeUpdater(CurrentTimeContainer) : void&lt;/p&gt;" style="verticalAlign=top;align=left;overflow=fill;fontSize=12;fontFamily=Helvetica;html=1;rounded=0;shadow=0;comic=0;labelBackgroundColor=none;strokeWidth=1" parent="1" vertex="1">
          <mxGeometry x="-1030" y="320" width="310" height="290" as="geometry" />
        </mxCell>
        <mxCell id="dvBEQIHfGSBWnm2R5klS-9" value="&lt;p style=&quot;margin:0px;margin-top:4px;text-align:center;&quot;&gt;&lt;i&gt;&amp;lt;Iface&amp;gt; ICharacter&lt;/i&gt;&lt;/p&gt;&lt;hr size=&quot;1&quot;&gt;&lt;p style=&quot;margin:0px;margin-left:4px;&quot;&gt;&lt;span style=&quot;background-color: initial;&quot;&gt;+ joinLocation(LocationImpl): void&amp;nbsp;&lt;/span&gt;&lt;br&gt;&lt;/p&gt;&lt;p style=&quot;margin:0px;margin-left:4px;&quot;&gt;&lt;span style=&quot;background-color: initial;&quot;&gt;+ getCurrentLocation(): LocationImpl&lt;/span&gt;&lt;/p&gt;&lt;p style=&quot;margin:0px;margin-left:4px;&quot;&gt;+ getName(): String&lt;/p&gt;&lt;p style=&quot;margin:0px;margin-left:4px;&quot;&gt;&lt;br&gt;+ getThoughts(): ArrayList&amp;lt;String&amp;gt;&lt;/p&gt;&amp;nbsp;+ goLookingFor(Character,&amp;nbsp;СharacterLocatableImpl&lt;span style=&quot;background-color: initial;&quot;&gt;): String&lt;/span&gt;&lt;p style=&quot;margin: 0px 0px 0px 4px;&quot;&gt;+&amp;nbsp;divertHunger(): String&lt;/p&gt;&lt;p style=&quot;margin: 0px 0px 0px 4px;&quot;&gt;+&amp;nbsp;hungerStiffle(ArrayList&lt;span style=&quot;background-color: rgb(31, 31, 31);&quot;&gt;&amp;lt;&lt;/span&gt;String&lt;span style=&quot;background-color: rgb(31, 31, 31);&quot;&gt;&amp;gt;&lt;/span&gt;&lt;span style=&quot;background-color: initial;&quot;&gt;): String&lt;/span&gt;&lt;/p&gt;" style="verticalAlign=top;align=left;overflow=fill;fontSize=12;fontFamily=Helvetica;html=1;rounded=0;shadow=0;comic=0;labelBackgroundColor=none;strokeWidth=1" parent="1" vertex="1">
          <mxGeometry x="300" y="400" width="400" height="180" as="geometry" />
        </mxCell>
        <mxCell id="LaWMTC1q8eppT-vutsCz-8" style="edgeStyle=orthogonalEdgeStyle;rounded=0;orthogonalLoop=1;jettySize=auto;html=1;exitX=0.5;exitY=1;exitDx=0;exitDy=0;dashed=1;strokeWidth=4;endArrow=block;endFill=1;" parent="1" source="dvBEQIHfGSBWnm2R5klS-10" target="dvBEQIHfGSBWnm2R5klS-9" edge="1">
          <mxGeometry relative="1" as="geometry" />
        </mxCell>
        <mxCell id="2F3Rw43oUGPpx6_fdSzb-15" style="edgeStyle=orthogonalEdgeStyle;rounded=0;orthogonalLoop=1;jettySize=auto;html=1;exitX=0;exitY=0.5;exitDx=0;exitDy=0;entryX=1;entryY=0.5;entryDx=0;entryDy=0;endArrow=open;endFill=0;strokeWidth=3;targetPerimeterSpacing=6;sourcePerimeterSpacing=0;startSize=6;strokeColor=default;dashed=1;dashPattern=1 1;" parent="1" source="dvBEQIHfGSBWnm2R5klS-10" target="2F3Rw43oUGPpx6_fdSzb-4" edge="1">
          <mxGeometry relative="1" as="geometry" />
        </mxCell>
        <mxCell id="dvBEQIHfGSBWnm2R5klS-10" value="&lt;p style=&quot;margin:0px;margin-top:4px;text-align:center;&quot;&gt;&lt;i&gt;&amp;lt;Class&amp;gt; Character&lt;/i&gt;&lt;/p&gt;&lt;hr size=&quot;1&quot;&gt;&lt;p style=&quot;margin:0px;margin-left:4px;&quot;&gt;+ name: String&lt;/p&gt;&lt;hr size=&quot;1&quot;&gt;&lt;p style=&quot;margin:0px;margin-left:4px;&quot;&gt;+ joinLocation(Location): void&lt;/p&gt;&lt;p style=&quot;margin:0px;margin-left:4px;&quot;&gt;+ getCurrentLocation(): Location&lt;/p&gt;&lt;p style=&quot;margin:0px;margin-left:4px;&quot;&gt;+ getName(): String&lt;/p&gt;&lt;p style=&quot;margin:0px;margin-left:4px;&quot;&gt;&lt;br&gt;&lt;/p&gt;&lt;p style=&quot;margin:0px;margin-left:4px;&quot;&gt;+&amp;nbsp;getThoughts():&amp;nbsp;ArrayList&lt;span style=&quot;background-color: rgb(31, 31, 31);&quot;&gt;&amp;lt;String&amp;gt;&lt;/span&gt;&lt;/p&gt;&lt;p style=&quot;margin:0px;margin-left:4px;&quot;&gt;&lt;span style=&quot;background-color: rgb(31, 31, 31);&quot;&gt;+&amp;nbsp;&lt;/span&gt;goLookingFor(Character&lt;span style=&quot;background-color: rgb(31, 31, 31);&quot;&gt;, &lt;/span&gt;СharacterLocatableImpl&lt;span style=&quot;background-color: initial;&quot;&gt;): String&lt;/span&gt;&lt;/p&gt;&lt;p style=&quot;margin:0px;margin-left:4px;&quot;&gt;&lt;span style=&quot;background-color: initial;&quot;&gt;+&amp;nbsp;&lt;/span&gt;divertHunger(): String&lt;/p&gt;&lt;p style=&quot;margin:0px;margin-left:4px;&quot;&gt;+&amp;nbsp;hungerStiffle(ArrayList&lt;span style=&quot;background-color: rgb(31, 31, 31);&quot;&gt;&amp;lt;&lt;/span&gt;String&lt;span style=&quot;background-color: rgb(31, 31, 31);&quot;&gt;&amp;gt;&lt;/span&gt;&lt;span style=&quot;background-color: initial;&quot;&gt;): String&lt;/span&gt;&lt;/p&gt;" style="verticalAlign=top;align=left;overflow=fill;fontSize=12;fontFamily=Helvetica;html=1;rounded=0;shadow=0;comic=0;labelBackgroundColor=none;strokeWidth=1" parent="1" vertex="1">
          <mxGeometry x="210" y="-220" width="560" height="400" as="geometry" />
        </mxCell>
        <mxCell id="dvBEQIHfGSBWnm2R5klS-12" value="&lt;p style=&quot;margin:0px;margin-top:4px;text-align:center;&quot;&gt;&lt;i&gt;&amp;lt;enum&lt;/i&gt;&lt;i style=&quot;background-color: initial;&quot;&gt;&amp;gt; S&lt;/i&gt;&lt;i style=&quot;background-color: initial;&quot;&gt;tiffleActions&lt;/i&gt;&lt;/p&gt;&lt;hr size=&quot;1&quot;&gt;&lt;p style=&quot;margin:0px;margin-left:4px;&quot;&gt;SONGS&lt;/p&gt;&lt;p style=&quot;margin:0px;margin-left:4px;&quot;&gt;PUZZLES&lt;/p&gt;&lt;p style=&quot;margin:0px;margin-left:4px;&quot;&gt;PROVERBS&lt;/p&gt;&lt;hr size=&quot;1&quot;&gt;&lt;p style=&quot;margin:0px;margin-left:4px;&quot;&gt;&lt;span style=&quot;background-color: initial;&quot;&gt;+ doAction(StiffleActions): String&lt;/span&gt;&lt;/p&gt;&lt;p style=&quot;margin:0px;margin-left:4px;&quot;&gt;&lt;span style=&quot;background-color: initial;&quot;&gt;+ getRandomAction(): StiffleActions&lt;/span&gt;&lt;/p&gt;" style="verticalAlign=top;align=left;overflow=fill;fontSize=12;fontFamily=Helvetica;html=1;rounded=0;shadow=0;comic=0;labelBackgroundColor=none;strokeWidth=1" parent="1" vertex="1">
          <mxGeometry x="-300" y="100" width="220" height="150" as="geometry" />
        </mxCell>
        <mxCell id="2F3Rw43oUGPpx6_fdSzb-1" value="&lt;p style=&quot;margin:0px;margin-top:4px;text-align:center;&quot;&gt;&lt;i&gt;&amp;lt;Iface&amp;gt; ILocation&lt;/i&gt;&lt;/p&gt;&lt;hr size=&quot;1&quot;&gt;&lt;p style=&quot;margin:0px;margin-left:4px;&quot;&gt;&lt;br&gt;&lt;/p&gt;&lt;p style=&quot;margin:0px;margin-left:4px;&quot;&gt;+ getName(): String&lt;/p&gt;&lt;p style=&quot;margin:0px;margin-left:4px;&quot;&gt;+ setRayTracingBias(double ) : void&lt;/p&gt;&lt;p style=&quot;margin:0px;margin-left:4px;&quot;&gt;+ getVisibility() : double&lt;/p&gt;&lt;p style=&quot;margin:0px;margin-left:4px;&quot;&gt;+ setBias(double) : void&lt;/p&gt;&lt;p style=&quot;margin:0px;margin-left:4px;&quot;&gt;+ setVisibility(double): void&lt;/p&gt;&lt;p style=&quot;margin:0px;margin-left:4px;&quot;&gt;+ setRayTraycing(Location) : void&lt;/p&gt;" style="verticalAlign=top;align=left;overflow=fill;fontSize=12;fontFamily=Helvetica;html=1;rounded=0;shadow=0;comic=0;labelBackgroundColor=none;strokeWidth=1" parent="1" vertex="1">
          <mxGeometry x="-1260" y="720" width="310" height="150" as="geometry" />
        </mxCell>
        <mxCell id="WZBPJUbF7nQeQ7k4uoAX-13" style="edgeStyle=orthogonalEdgeStyle;rounded=0;orthogonalLoop=1;jettySize=auto;html=1;exitX=0;exitY=0.25;exitDx=0;exitDy=0;entryX=1;entryY=0.5;entryDx=0;entryDy=0;strokeWidth=3;" edge="1" parent="1" source="2F3Rw43oUGPpx6_fdSzb-4" target="8IdPx9-K8sB281tfVT_--6">
          <mxGeometry relative="1" as="geometry">
            <Array as="points">
              <mxPoint x="-660" y="362" />
              <mxPoint x="-660" y="280" />
            </Array>
          </mxGeometry>
        </mxCell>
        <mxCell id="WZBPJUbF7nQeQ7k4uoAX-14" style="edgeStyle=orthogonalEdgeStyle;rounded=0;orthogonalLoop=1;jettySize=auto;html=1;exitX=-0.002;exitY=0.116;exitDx=0;exitDy=0;entryX=1;entryY=0.5;entryDx=0;entryDy=0;exitPerimeter=0;strokeWidth=3;endArrow=open;endFill=0;" edge="1" parent="1" source="2F3Rw43oUGPpx6_fdSzb-4" target="8IdPx9-K8sB281tfVT_--7">
          <mxGeometry relative="1" as="geometry">
            <Array as="points">
              <mxPoint x="-640" y="345" />
              <mxPoint x="-640" y="230" />
            </Array>
          </mxGeometry>
        </mxCell>
        <mxCell id="2F3Rw43oUGPpx6_fdSzb-4" value="&lt;p style=&quot;margin:0px;margin-top:4px;text-align:center;&quot;&gt;&lt;i&gt;&amp;lt;Class&amp;gt; CharacterLocatableImpl&lt;/i&gt;&lt;/p&gt;&lt;hr size=&quot;1&quot;&gt;&lt;p style=&quot;margin:0px;margin-left:4px;&quot;&gt;+ name: String&lt;/p&gt;&lt;hr size=&quot;1&quot;&gt;&lt;p style=&quot;margin:0px;margin-left:4px;&quot;&gt;+ leaveCharacter(CharacterImpl): void&lt;/p&gt;&lt;p style=&quot;margin:0px;margin-left:4px;&quot;&gt;+ joinCharacter(CharacterImpl): void&lt;/p&gt;&lt;p style=&quot;margin:0px;margin-left:4px;&quot;&gt;+ isCharacterInLocation(Character): boolean&lt;/p&gt;&lt;p style=&quot;margin:0px;margin-left:4px;&quot;&gt;+&amp;nbsp;getAllVisitors():&amp;nbsp;ArrayList&amp;lt;Character&lt;span style=&quot;background-color: rgb(31, 31, 31);&quot;&gt;&amp;gt;&lt;/span&gt;&lt;br&gt;&lt;/p&gt;&lt;p style=&quot;margin:0px;margin-left:4px;&quot;&gt;&lt;br&gt;&lt;/p&gt;" style="verticalAlign=top;align=left;overflow=fill;fontSize=12;fontFamily=Helvetica;html=1;rounded=0;shadow=0;comic=0;labelBackgroundColor=none;strokeWidth=1" parent="1" vertex="1">
          <mxGeometry x="-330" y="330" width="310" height="130" as="geometry" />
        </mxCell>
        <mxCell id="2F3Rw43oUGPpx6_fdSzb-12" style="edgeStyle=orthogonalEdgeStyle;rounded=0;orthogonalLoop=1;jettySize=auto;html=1;exitX=0.5;exitY=1;exitDx=0;exitDy=0;dashed=1;strokeWidth=4;endArrow=block;endFill=1;entryX=0.5;entryY=0;entryDx=0;entryDy=0;" parent="1" source="2F3Rw43oUGPpx6_fdSzb-4" target="jP7N-M61z1NQIUzTlqMH-1" edge="1">
          <mxGeometry relative="1" as="geometry">
            <mxPoint x="-380" y="450" as="sourcePoint" />
            <mxPoint x="-355" y="570" as="targetPoint" />
          </mxGeometry>
        </mxCell>
        <mxCell id="2F3Rw43oUGPpx6_fdSzb-13" style="edgeStyle=orthogonalEdgeStyle;rounded=0;orthogonalLoop=1;jettySize=auto;html=1;exitX=0.5;exitY=1;exitDx=0;exitDy=0;dashed=1;strokeWidth=4;endArrow=block;endFill=1;" parent="1" source="dvBEQIHfGSBWnm2R5klS-8" target="2F3Rw43oUGPpx6_fdSzb-1" edge="1">
          <mxGeometry relative="1" as="geometry">
            <mxPoint x="-425" y="410" as="sourcePoint" />
            <mxPoint x="-565" y="630" as="targetPoint" />
          </mxGeometry>
        </mxCell>
        <mxCell id="2F3Rw43oUGPpx6_fdSzb-14" style="edgeStyle=orthogonalEdgeStyle;rounded=0;orthogonalLoop=1;jettySize=auto;html=1;entryX=1;entryY=0.5;entryDx=0;entryDy=0;strokeWidth=3;endArrow=block;endFill=1;" parent="1" source="2F3Rw43oUGPpx6_fdSzb-4" target="dvBEQIHfGSBWnm2R5klS-8" edge="1">
          <mxGeometry relative="1" as="geometry">
            <mxPoint x="-630" y="530" as="sourcePoint" />
            <mxPoint x="-495" y="310" as="targetPoint" />
          </mxGeometry>
        </mxCell>
        <mxCell id="2F3Rw43oUGPpx6_fdSzb-16" style="edgeStyle=orthogonalEdgeStyle;rounded=0;orthogonalLoop=1;jettySize=auto;html=1;exitX=0;exitY=0.5;exitDx=0;exitDy=0;entryX=0.5;entryY=0;entryDx=0;entryDy=0;endArrow=open;endFill=0;strokeWidth=3;targetPerimeterSpacing=6;sourcePerimeterSpacing=0;startSize=6;strokeColor=default;dashed=1;dashPattern=1 1;" parent="1" source="dvBEQIHfGSBWnm2R5klS-10" target="dvBEQIHfGSBWnm2R5klS-12" edge="1">
          <mxGeometry relative="1" as="geometry">
            <mxPoint x="330" y="240" as="sourcePoint" />
            <mxPoint x="-10" y="325" as="targetPoint" />
          </mxGeometry>
        </mxCell>
        <mxCell id="2F3Rw43oUGPpx6_fdSzb-17" value="&lt;p style=&quot;margin:0px;margin-top:4px;text-align:center;&quot;&gt;&lt;i&gt;&amp;lt;Class&amp;gt; Story&lt;/i&gt;&lt;/p&gt;&lt;p style=&quot;margin:0px;margin-left:4px;&quot;&gt;&lt;br&gt;&lt;/p&gt;&lt;p style=&quot;margin:0px;margin-left:4px;&quot;&gt;+ play(): void&lt;/p&gt;" style="verticalAlign=top;align=left;overflow=fill;fontSize=12;fontFamily=Helvetica;html=1;rounded=0;shadow=0;comic=0;labelBackgroundColor=none;strokeWidth=1" parent="1" vertex="1">
          <mxGeometry x="-180" y="-350" width="270" height="110" as="geometry" />
        </mxCell>
        <mxCell id="WZBPJUbF7nQeQ7k4uoAX-11" style="edgeStyle=orthogonalEdgeStyle;rounded=0;orthogonalLoop=1;jettySize=auto;html=1;exitX=1;exitY=0.5;exitDx=0;exitDy=0;entryX=0.5;entryY=1;entryDx=0;entryDy=0;strokeWidth=4;endArrow=open;endFill=0;" edge="1" parent="1" source="8IdPx9-K8sB281tfVT_--1" target="8IdPx9-K8sB281tfVT_--4">
          <mxGeometry relative="1" as="geometry">
            <mxPoint x="-980" y="-30" as="targetPoint" />
          </mxGeometry>
        </mxCell>
        <mxCell id="8IdPx9-K8sB281tfVT_--1" value="&lt;p style=&quot;margin:0px;margin-top:4px;text-align:center;&quot;&gt;&lt;i&gt;&amp;lt;AnstractClass&lt;/i&gt;&lt;i style=&quot;background-color: initial;&quot;&gt;&amp;gt; TimeSlaveEntity&lt;/i&gt;&lt;/p&gt;&lt;p style=&quot;margin:0px;margin-left:4px;&quot;&gt;&lt;br&gt;&lt;/p&gt;&lt;p style=&quot;margin:0px;margin-left:4px;&quot;&gt;+ timeUpdater(CurrentTimeContainer): void&lt;/p&gt;" style="verticalAlign=top;align=left;overflow=fill;fontSize=12;fontFamily=Helvetica;html=1;rounded=0;shadow=0;comic=0;labelBackgroundColor=none;strokeWidth=1" parent="1" vertex="1">
          <mxGeometry x="-1330" y="5" width="240" height="70" as="geometry" />
        </mxCell>
        <mxCell id="WZBPJUbF7nQeQ7k4uoAX-6" style="edgeStyle=orthogonalEdgeStyle;rounded=0;orthogonalLoop=1;jettySize=auto;html=1;exitX=1;exitY=0.5;exitDx=0;exitDy=0;entryX=0;entryY=0.5;entryDx=0;entryDy=0;strokeWidth=4;endArrow=open;endFill=0;" edge="1" parent="1" source="8IdPx9-K8sB281tfVT_--4" target="8IdPx9-K8sB281tfVT_--5">
          <mxGeometry relative="1" as="geometry" />
        </mxCell>
        <mxCell id="8IdPx9-K8sB281tfVT_--4" value="&lt;p style=&quot;margin:0px;margin-top:4px;text-align:center;&quot;&gt;&lt;i&gt;&amp;lt;Class&amp;gt; GlobalTimeUpdater&lt;/i&gt;&lt;/p&gt;&lt;hr size=&quot;1&quot;&gt;&lt;p style=&quot;margin:0px;margin-left:4px;&quot;&gt;+ currentTime: CurrentTimeContainer&lt;/p&gt;&lt;p style=&quot;margin:0px;margin-left:4px;&quot;&gt;+ objects2update: ArrayList&amp;lt;TimeSlaveEntity&amp;gt;&lt;/p&gt;&lt;hr size=&quot;1&quot;&gt;&lt;p style=&quot;margin:0px;margin-left:4px;&quot;&gt;&lt;br&gt;&lt;/p&gt;&lt;p style=&quot;margin:0px;margin-left:4px;&quot;&gt;+ timeStep() : void&lt;/p&gt;&lt;p style=&quot;margin:0px;margin-left:4px;&quot;&gt;+ addObjects2Update(TimeSlaveEntity) : void&lt;/p&gt;" style="verticalAlign=top;align=left;overflow=fill;fontSize=12;fontFamily=Helvetica;html=1;rounded=0;shadow=0;comic=0;labelBackgroundColor=none;strokeWidth=1" parent="1" vertex="1">
          <mxGeometry x="-1090" y="-280" width="310" height="130" as="geometry" />
        </mxCell>
        <mxCell id="8IdPx9-K8sB281tfVT_--5" value="&lt;p style=&quot;margin:0px;margin-top:4px;text-align:center;&quot;&gt;&lt;i&gt;&amp;lt;Class&amp;gt; CurrentTimeContainer&lt;/i&gt;&lt;/p&gt;&lt;hr size=&quot;1&quot;&gt;&lt;p style=&quot;margin:0px;margin-left:4px;&quot;&gt;+ time: int&lt;/p&gt;&lt;hr size=&quot;1&quot;&gt;&lt;p style=&quot;margin:0px;margin-left:4px;&quot;&gt;&lt;br&gt;&lt;/p&gt;&lt;p style=&quot;margin:0px;margin-left:4px;&quot;&gt;+ getCurrentTIme(): int&lt;br&gt;&lt;/p&gt;&lt;p style=&quot;margin:0px;margin-left:4px;&quot;&gt;+ setCurrentTIme(int): void&lt;/p&gt;&lt;p style=&quot;margin:0px;margin-left:4px;&quot;&gt;+ addToCurrentTime(int) : void&lt;/p&gt;" style="verticalAlign=top;align=left;overflow=fill;fontSize=12;fontFamily=Helvetica;html=1;rounded=0;shadow=0;comic=0;labelBackgroundColor=none;strokeWidth=1" parent="1" vertex="1">
          <mxGeometry x="-650" y="-150" width="310" height="130" as="geometry" />
        </mxCell>
        <mxCell id="8IdPx9-K8sB281tfVT_--6" value="&lt;p style=&quot;margin:0px;margin-top:4px;text-align:center;&quot;&gt;&lt;i&gt;&amp;lt;Exception&lt;/i&gt;&lt;i style=&quot;background-color: initial;&quot;&gt;&amp;gt; CharaterMovementException&lt;/i&gt;&lt;/p&gt;" style="verticalAlign=top;align=left;overflow=fill;fontSize=12;fontFamily=Helvetica;html=1;rounded=0;shadow=0;comic=0;labelBackgroundColor=none;strokeWidth=1" parent="1" vertex="1">
          <mxGeometry x="-1600" y="260" width="270" height="40" as="geometry" />
        </mxCell>
        <mxCell id="8IdPx9-K8sB281tfVT_--7" value="&lt;p style=&quot;margin:0px;margin-top:4px;text-align:center;&quot;&gt;&lt;i&gt;&amp;lt;Error&lt;/i&gt;&lt;i style=&quot;background-color: initial;&quot;&gt;&amp;gt; NoAnyVisitorsError&lt;/i&gt;&lt;/p&gt;" style="verticalAlign=top;align=left;overflow=fill;fontSize=12;fontFamily=Helvetica;html=1;rounded=0;shadow=0;comic=0;labelBackgroundColor=none;strokeWidth=1" parent="1" vertex="1">
          <mxGeometry x="-1600" y="210" width="270" height="40" as="geometry" />
        </mxCell>
        <mxCell id="WZBPJUbF7nQeQ7k4uoAX-3" style="edgeStyle=orthogonalEdgeStyle;rounded=0;orthogonalLoop=1;jettySize=auto;html=1;exitX=1;exitY=0.5;exitDx=0;exitDy=0;entryX=0;entryY=0.5;entryDx=0;entryDy=0;endArrow=open;endFill=0;strokeWidth=3;" edge="1" parent="1" source="WZBPJUbF7nQeQ7k4uoAX-1" target="WZBPJUbF7nQeQ7k4uoAX-2">
          <mxGeometry relative="1" as="geometry" />
        </mxCell>
        <mxCell id="WZBPJUbF7nQeQ7k4uoAX-1" value="&lt;p style=&quot;margin:0px;margin-top:4px;text-align:center;&quot;&gt;&lt;i&gt;&amp;lt;Class&amp;gt; TrashChest&lt;/i&gt;&lt;/p&gt;&lt;p style=&quot;margin:0px;margin-left:4px;&quot;&gt;&lt;br&gt;&lt;/p&gt;&lt;p style=&quot;margin:0px;margin-left:4px;&quot;&gt;+ makeSleepingPlaceFrom() : String&lt;/p&gt;" style="verticalAlign=top;align=left;overflow=fill;fontSize=12;fontFamily=Helvetica;html=1;rounded=0;shadow=0;comic=0;labelBackgroundColor=none;strokeWidth=1" vertex="1" parent="1">
          <mxGeometry x="220" y="-20" width="220" height="70" as="geometry" />
        </mxCell>
        <mxCell id="WZBPJUbF7nQeQ7k4uoAX-2" value="&lt;p style=&quot;margin:0px;margin-top:4px;text-align:center;&quot;&gt;&lt;i&gt;&amp;lt;Enum&amp;gt; Trash&lt;/i&gt;&lt;/p&gt;&lt;p style=&quot;margin:0px;margin-left:4px;&quot;&gt;&lt;br&gt;&lt;/p&gt;&lt;p style=&quot;margin:0px;margin-left:4px;&quot;&gt;RUBBER_PILLOWm&lt;/p&gt;&lt;p style=&quot;margin:0px;margin-left:4px;&quot;&gt;OLD_MATTERS,&lt;/p&gt;&lt;p style=&quot;margin:0px;margin-left:4px;&quot;&gt;CLOTH;&lt;/p&gt;" style="verticalAlign=top;align=left;overflow=fill;fontSize=12;fontFamily=Helvetica;html=1;rounded=0;shadow=0;comic=0;labelBackgroundColor=none;strokeWidth=1" vertex="1" parent="1">
          <mxGeometry x="510" y="50" width="250" height="100" as="geometry" />
        </mxCell>
        <mxCell id="WZBPJUbF7nQeQ7k4uoAX-5" style="edgeStyle=orthogonalEdgeStyle;rounded=0;orthogonalLoop=1;jettySize=auto;html=1;exitX=0.5;exitY=1;exitDx=0;exitDy=0;entryX=0.5;entryY=0;entryDx=0;entryDy=0;strokeWidth=4;endArrow=block;endFill=1;" edge="1" parent="1" source="WZBPJUbF7nQeQ7k4uoAX-4" target="8IdPx9-K8sB281tfVT_--4">
          <mxGeometry relative="1" as="geometry" />
        </mxCell>
        <mxCell id="WZBPJUbF7nQeQ7k4uoAX-4" value="&lt;p style=&quot;margin:0px;margin-top:4px;text-align:center;&quot;&gt;&lt;i&gt;&amp;lt;Iface&amp;gt; ITimerUpdater&lt;/i&gt;&lt;/p&gt;&lt;p style=&quot;margin:0px;margin-left:4px;&quot;&gt;&lt;br&gt;&lt;/p&gt;&lt;p style=&quot;margin:0px;margin-left:4px;&quot;&gt;+ timeStep() : void&lt;/p&gt;&lt;p style=&quot;margin:0px;margin-left:4px;&quot;&gt;+ addObjects2Update(TimeSlaveEntity) : void&lt;/p&gt;" style="verticalAlign=top;align=left;overflow=fill;fontSize=12;fontFamily=Helvetica;html=1;rounded=0;shadow=0;comic=0;labelBackgroundColor=none;strokeWidth=1" vertex="1" parent="1">
          <mxGeometry x="-1090" y="-440" width="310" height="90" as="geometry" />
        </mxCell>
        <mxCell id="WZBPJUbF7nQeQ7k4uoAX-7" value="&lt;p style=&quot;margin:0px;margin-top:4px;text-align:center;&quot;&gt;&lt;i&gt;&amp;lt;Iface&amp;gt; ITimeContainer&lt;/i&gt;&lt;/p&gt;&lt;p style=&quot;margin:0px;margin-left:4px;&quot;&gt;&lt;br&gt;&lt;/p&gt;&lt;p style=&quot;margin:0px;margin-left:4px;&quot;&gt;+ addObjects2Update(TimeSlaveEntity) : void&lt;/p&gt;" style="verticalAlign=top;align=left;overflow=fill;fontSize=12;fontFamily=Helvetica;html=1;rounded=0;shadow=0;comic=0;labelBackgroundColor=none;strokeWidth=1" vertex="1" parent="1">
          <mxGeometry x="-640" y="-360" width="310" height="80" as="geometry" />
        </mxCell>
        <mxCell id="WZBPJUbF7nQeQ7k4uoAX-8" style="edgeStyle=orthogonalEdgeStyle;rounded=0;orthogonalLoop=1;jettySize=auto;html=1;exitX=0.5;exitY=1;exitDx=0;exitDy=0;entryX=0.53;entryY=0.012;entryDx=0;entryDy=0;entryPerimeter=0;endArrow=block;endFill=0;dashed=1;dashPattern=1 1;strokeWidth=5;" edge="1" parent="1" source="WZBPJUbF7nQeQ7k4uoAX-7" target="8IdPx9-K8sB281tfVT_--5">
          <mxGeometry relative="1" as="geometry" />
        </mxCell>
        <mxCell id="WZBPJUbF7nQeQ7k4uoAX-12" style="edgeStyle=orthogonalEdgeStyle;rounded=0;orthogonalLoop=1;jettySize=auto;html=1;exitX=1;exitY=0.5;exitDx=0;exitDy=0;entryX=0.001;entryY=0.696;entryDx=0;entryDy=0;entryPerimeter=0;strokeWidth=4;endArrow=open;endFill=0;" edge="1" parent="1" source="8IdPx9-K8sB281tfVT_--1" target="dvBEQIHfGSBWnm2R5klS-10">
          <mxGeometry relative="1" as="geometry" />
        </mxCell>
      </root>
    </mxGraphModel>
  </diagram>
</mxfile>
